<svg xmlns="http://www.w3.org/2000/svg" width="72" height="72" fill="none" viewBox="0 0 72 72">
    <path fill="currentColor" d="M47.375 12.7h-2.5V7.5h-5.2V5h7.7v7.7zM46.075 17.7h-18c-.7 0-1.2-.6-1.2-1.2V6.3c0-.7.6-1.2 1.2-1.2h7.6c.7 0 1.2.6 1.2 1.2s-.6 1.2-1.2 1.2h-6.4v7.7h16.7c.7 0 1.2.6 1.2 1.2s-.4 1.3-1.1 1.3z"/>
    <path fill="currentColor" d="M22.975 38.1c-.7 0-1.2-.6-1.2-1.2V28c0-.2 0-.4.1-.5l5.5-11.4c.3-.6 1-.9 1.7-.6.6.3.9 1 .6 1.7l-5.4 11.2v7.2c1.5-.5 2.5-2 2.5-3.9v-2.3c0-.7.6-1.2 1.2-1.2s1.2.6 1.2 1.2v2.3c.1 3.6-2.6 6.4-6.2 6.4z"/>
    <path fill="currentColor" d="M35.675 57.4h-.2c-2.1 0-3.8-1.7-3.8-3.8v-1.5c-.4.1-.8.2-1.3.2-2.1 0-3.8-1.7-3.8-3.8V29.2c0-.7.6-1.2 1.2-1.2s1.2.6 1.2 1.2v19.3c0 .7.6 1.3 1.3 1.3.7 0 1.3-.6 1.3-1.3V36.9c0-.7.6-1.2 1.2-1.2s1.2.6 1.2 1.2v16.7c0 .7.6 1.3 1.3 1.3h.2c.7 0 1.3-.6 1.3-1.3V36.9c0-.7.6-1.2 1.2-1.2s1.2.6 1.2 1.2v14.2c0 .7.6 1.3 1.3 1.3.8 0 1.3-.6 1.3-1.3V34.4c0-.7.6-1.2 1.2-1.2.7 0 1.2.6 1.2 1.2V46c0 .7.6 1.2 1.3 1.2h.2c.7 0 1.3-.6 1.3-1.3V25.7l-2.8-8.7c-.2-.7.1-1.4.8-1.6.7-.2 1.4.1 1.6.8l2.9 8.9c0 .1.1.3.1.4V46c0 2.1-1.7 3.8-3.8 3.8h-.2c-.4 0-.9-.1-1.3-.2v1.5c0 2.1-1.7 3.8-3.8 3.8-.5 0-1-.1-1.5-.3 0 1.6-1.5 2.8-3.3 2.8zM37.075 5h-1.3v2.5h1.3V5zM53.275 66.1c-.3 0-.6-.1-.9-.4l-7.2-7.2c-.5-.5-.5-1.3 0-1.8l12.8-12.8c.5-.5 1.3-.5 1.8 0l7.2 7.2c.2.2.4.6.4.9 0 .3-.1.6-.4.9l-12.9 12.8c-.2.2-.5.4-.8.4zm-5.5-8.5l5.5 5.5 11-11-5.5-5.5-11 11z"/>
    <path fill="currentColor" d="M58.475 46.3c-.5 0-1-.3-1.2-.8l-4.1-11.7-5.5-5.5c-.5-.5-.5-1.3 0-1.8s1.3-.5 1.8 0l5.7 5.7c.1.1.2.3.3.5l4.2 12c.2.7-.1 1.4-.8 1.6h-.4zM46.375 58.4c-.2 0-.4 0-.6-.1l-8-4.1c-.6-.3-.9-1.1-.5-1.7.3-.6 1.1-.9 1.7-.5l8 4.1c.6.3.9 1.1.5 1.7-.2.4-.7.6-1.1.6zM18.375 66.1c-.3 0-.6-.1-.9-.4l-13.1-13c-.5-.5-.5-1.3 0-1.8l7.2-7.2c.5-.5 1.3-.5 1.8 0l13.1 13.1c.5.5.5 1.3 0 1.8l-7.2 7.2c-.3.2-.6.3-.9.3zm-11.3-14.3l11.3 11.3 5.5-5.5-11.4-11.3-5.4 5.5z"/>
    <path fill="currentColor" d="M13.075 46.3c-.1 0-.3 0-.4-.1-.7-.2-1-.9-.8-1.6l4.2-12c.1-.2.2-.3.3-.5l5.6-5.6c.5-.5 1.3-.5 1.8 0s.5 1.3 0 1.8l-5.4 5.4-4.1 11.7c-.2.6-.7.9-1.2.9zM25.175 58.4c-.5 0-.9-.2-1.1-.7-.3-.6-.1-1.4.5-1.7l7.7-3.9c.6-.3 1.4-.1 1.7.5.3.6.1 1.4-.5 1.7l-7.7 3.9c-.2.2-.4.2-.6.2z"/>
</svg>
