<svg xmlns="http://www.w3.org/2000/svg" width="72" height="72" fill="none" viewBox="0 0 72 72">
    <path fill="currentColor" d="M48.6 64.4H22.8c-.7 0-1.2-.6-1.2-1.2s.6-1.2 1.2-1.2h25.7c.7 0 1.2.6 1.2 1.2s-.5 1.2-1.1 1.2z"/>
    <path fill="currentColor" d="M35.7 64.2c-.7 0-1.2-.6-1.2-1.2V17.1c0-.7.6-1.3 1.2-1.3s1.2.6 1.2 1.3V63c.1.7-.5 1.2-1.2 1.2z"/>
    <path fill="currentColor" d="M35.7 25.9h-9c-4.2 0-7.7-3.5-7.7-7.7v-9c0-.7.6-1.2 1.2-1.2h9c4.2 0 7.7 3.5 7.7 7.7v9c.1.6-.5 1.2-1.2 1.2zM21.5 10.4v7.7c0 2.9 2.3 5.2 5.2 5.2h7.7v-7.7c0-2.9-2.3-5.2-5.2-5.2h-7.7zM35.7 49h-9c-4.2 0-7.7-3.5-7.7-7.7v-9c0-.7.6-1.2 1.2-1.2h9c4.2 0 7.7 3.5 7.7 7.7v9c.1.7-.5 1.2-1.2 1.2zM21.5 33.6v7.7c0 2.9 2.3 5.2 5.2 5.2h7.7v-7.7c0-2.9-2.3-5.2-5.2-5.2h-7.7z"/>
    <path fill="currentColor" d="M49.9 31.1c0 2.9-2.3 5.2-5.2 5.2H37v-7.7c0-2.9 2.3-5.2 5.2-5.2v-2.5c-4.2 0-7.7 3.5-7.7 7.7v9c0 .7.6 1.3 1.2 1.3h9c4.2 0 7.7-3.4 7.7-7.7h-2.5v-.1zM52.4 28.5h-2.5v-5.2h-5.2v-2.5h7.7v7.7z"/>
</svg>
