<svg xmlns="http://www.w3.org/2000/svg" width="72" height="72" fill="none" viewBox="0 0 72 72">
    <path fill="currentColor" d="M57.9 41.9H14.3c-.3 0-.7-.1-.9-.4-.2-.2-.4-.6-.4-.9v-7.8c0-.7.6-1.2 1.2-1.2h43.7c.7 0 1.2.6 1.2 1.2v7.8c0 .8-.5 1.3-1.2 1.3zm-42.4-2.5h41.1v-5.3h-41l-.1 5.3z"/>
    <path fill="currentColor" d="M46.3 13.6c0 .4.2.8.5 1 4.4 3.3 7.3 8.5 7.3 14.4v2.7h-36V29c0-5.9 2.9-11.2 7.3-14.4.3-.2.5-.6.5-1 0-1-1.2-1.6-2-1-5 3.7-8.3 9.7-8.3 16.4v5.2h41V29c0-6.7-3.3-12.7-8.3-16.4-.8-.6-2-.1-2 1z"/>
    <path fill="currentColor" d="M43.7 13.6h-2.5V8.5h-5.1V6h7.6v7.6z"/>
    <path fill="currentColor" d="M41.2 16.2v15.4H30.9V8.5h2.7V6h-4c-.7 0-1.2.6-1.2 1.2v25.6c0 .3.1.7.4.9.3.2.6.4.9.4h12.9c.7 0 1.2-.6 1.2-1.2V16.2h-2.6zM47.6 33.6c-.7 0-1.2-.6-1.2-1.2v-7.2c0-.7.6-1.2 1.2-1.2s1.2.6 1.2 1.2v7.2c.1.7-.5 1.2-1.2 1.2zM24.5 33.6c-.7 0-1.2-.6-1.2-1.2v-7.2c0-.7.6-1.2 1.2-1.2s1.2.6 1.2 1.2v7.2c.1.7-.5 1.2-1.2 1.2zM36.1 65.2c-9.9 0-17.9-8-17.9-17.9v-6.5c0-.7.6-1.2 1.2-1.2h33.3c.7 0 1.2.6 1.2 1.2v6.5c.1 9.9-7.9 17.9-17.8 17.9zM20.7 42.1v5.2c0 8.5 6.9 15.4 15.4 15.4s15.4-6.9 15.4-15.4v-5.2H20.7z"/>
</svg>
